<?xml version="1.0" encoding="UTF-8" standalone="no"?><!DOCTYPE svg PUBLIC "-//W3C//DTD SVG 1.1//EN" "http://www.w3.org/Graphics/SVG/1.1/DTD/svg11.dtd"><svg width="100%" height="100%" viewBox="0 0 209 85" version="1.1" xmlns="http://www.w3.org/2000/svg" xmlns:xlink="http://www.w3.org/1999/xlink" xml:space="preserve" xmlns:serif="http://www.serif.com/" style="fill-rule:evenodd;clip-rule:evenodd;stroke-linejoin:round;stroke-miterlimit:1.41421;"><path d="M91.049,36.687c0,-0.395 0.057,-0.621 0.621,-0.735l4.861,-0.678c0.452,-0.056 0.734,0 0.734,0.509c0,5.029 4.012,7.628 9.437,7.628c4.747,0 7.685,-2.26 7.685,-5.425c0,-4.011 -4.182,-5.255 -11.584,-7.685c-6.838,-2.316 -10.398,-5.651 -10.398,-11.584c0,-6.442 5.651,-10.171 12.715,-10.171c7.741,0 13.562,4.238 13.562,11.188c0,0.396 -0.114,0.509 -0.509,0.622l-4.973,0.678c-0.395,0.057 -0.621,-0.113 -0.621,-0.621c-0.114,-3.956 -3.334,-6.103 -7.573,-6.103c-3.503,0 -6.159,1.808 -6.159,4.52c0,3.108 2.487,4.69 9.098,6.725c9.607,2.882 12.827,6.837 12.827,12.771c0,6.385 -5.594,10.849 -14.014,10.849c-8.081,0 -15.709,-3.39 -15.709,-12.488" style="fill:#fff;fill-rule:nonzero;"/><path d="M167.561,27.477l0,1.356c0,11.302 -7.402,20.343 -19.439,20.343c-11.188,0 -20.06,-9.098 -20.06,-20.343c0,-11.189 8.758,-20.287 20.004,-20.287c8.307,0 14.918,5.029 17.405,11.02c0.113,0.338 0.169,0.621 -0.17,0.678l-4.859,0.734c-0.34,0.113 -0.679,0.113 -0.905,-0.226c-1.752,-2.994 -5.594,-6.442 -11.132,-6.442c-8.42,0 -13.901,6.894 -13.901,14.523c0,7.685 5.255,14.578 13.958,14.578c8.927,0 12.658,-6.667 12.658,-11.131c0,-0.339 -0.17,-0.565 -0.509,-0.565l-11.359,0c-0.338,0 -0.564,-0.226 -0.564,-0.565l0,-3.673c0,-0.34 0.226,-0.566 0.564,-0.566l17.745,0c0.338,0 0.564,0.226 0.564,0.566" style="fill:#fff;fill-rule:nonzero;"/><path d="M191.747,32.054c5.199,0 10.115,-1.921 10.115,-8.759c0,-6.893 -4.972,-8.815 -10.115,-8.815l-7.685,0c-0.339,0 -0.565,0.226 -0.565,0.565l0,16.444c0,0.339 0.226,0.565 0.565,0.565l7.685,0Zm-14.692,16.387l0,-39.16c0,-0.339 0.226,-0.565 0.565,-0.565l14.692,0c9.098,0 15.992,5.538 15.992,14.579c0,9.041 -6.894,14.523 -15.992,14.523l-8.25,0c-0.339,0 -0.565,0.226 -0.565,0.565l0,10.058c0,0.339 -0.226,0.565 -0.565,0.565l-5.312,0c-0.339,0 -0.565,-0.226 -0.565,-0.565" style="fill:#fff;fill-rule:nonzero;"/><path d="M96.216,61.84l-2.867,0l0,4.355l2.867,0c1.378,0 2.315,-0.791 2.315,-2.168c0,-1.378 -0.937,-2.187 -2.315,-2.187m0.11,6.155l-2.977,0l0,5.145l-1.984,0l0,-13.082l4.961,0c2.554,0 4.189,1.691 4.189,3.969c0,2.279 -1.635,3.968 -4.189,3.968" style="fill:#fff;fill-rule:nonzero;"/><path d="M104.759,73.14l0,-13.083l8.359,0l0,1.783l-6.375,0l0,3.821l5.439,0l0,1.764l-5.439,0l0,3.933l6.375,0l0,1.782l-8.359,0Z" style="fill:#fff;fill-rule:nonzero;"/><path d="M122.598,61.84l-2.94,0l0,4.097l2.94,0c1.323,0 2.223,-0.752 2.223,-2.039c0,-1.286 -0.9,-2.058 -2.223,-2.058m2.297,11.3l-2.756,-5.512l-2.481,0l0,5.512l-1.984,0l0,-13.082l5.071,0c2.48,0 4.061,1.599 4.061,3.822c0,1.874 -1.14,3.069 -2.609,3.472l3.012,5.788l-2.314,0Z" style="fill:#fff;fill-rule:nonzero;"/><path d="M135.771,73.14l-1.543,0l-4.299,-13.083l2.058,0l3.012,9.519l3.014,-9.519l2.094,0l-4.336,13.083Z" style="fill:#fff;fill-rule:nonzero;"/><path d="M143.744,73.14l0,-13.083l8.359,0l0,1.783l-6.375,0l0,3.821l5.439,0l0,1.764l-5.439,0l0,3.933l6.375,0l0,1.782l-8.359,0Z" style="fill:#fff;fill-rule:nonzero;"/><path d="M160.905,58.79l-1.58,0l-2.37,-2.958l1.561,0l1.599,1.782l1.598,-1.782l1.562,0l-2.37,2.958Zm-5.071,14.35l0,-1.709l6.044,-9.592l-5.787,0l0,-1.782l8.121,0l0,1.618l-6.081,9.683l6.081,0l0,1.782l-8.378,0Z" style="fill:#fff;fill-rule:nonzero;"/><rect x="168.638" y="60.057" width="1.984" height="13.083" style="fill:#fff;"/><path d="M185.431,73.14l0,-8.746l-3.014,6.376l-1.469,0l-3.087,-6.376l0,8.746l-1.984,0l0,-13.083l1.984,0l3.821,8.14l3.749,-8.14l1.984,0l0,13.083l-1.984,0Z" style="fill:#fff;fill-rule:nonzero;"/><path d="M196.729,63.016l-2.04,5.806l4.025,0l-1.985,-5.806Zm3.436,10.124l-0.9,-2.627l-5.163,0l-0.901,2.627l-2.112,0l4.795,-13.082l1.599,0l4.795,13.082l-2.113,0Z" style="fill:#fff;fill-rule:nonzero;"/><rect x="205.97" y="60.057" width="1.984" height="13.083" style="fill:#fff;"/><path d="M64.818,25.859l0,-17.858l-56.817,0l0,25.618l5.856,0l0,-2.097l-3.759,0l0,-21.424l52.623,0l0,15.761l2.097,0Z" style="fill:#fff;fill-rule:nonzero;"/><path d="M0,0l0,41.619l13.857,0l0,-2.097l-11.76,0l0,-37.425l68.625,0l0,23.762l2.097,0l0,-25.859l-72.819,0Z" style="fill:#fff;fill-rule:nonzero;"/><path d="M25.618,25.859l31.119,0l0,-2.097l-33.216,0l0,25.618l4.321,0l0,0.039l2.097,0l0,-2.136l-4.321,0l0,-21.424Z" style="fill:#fff;fill-rule:nonzero;"/><path d="M17.617,17.858l39.12,0l0,-2.097l-41.217,0l0,41.619l14.419,0l0,-2.097l-12.322,0l0,-37.425Z" style="fill:#fff;fill-rule:nonzero;"/><path d="M43.602,57.38l13.135,0l0,-14.098l-2.097,0l0,12.001l-11.038,0l0,2.097Z" style="fill:#fff;fill-rule:nonzero;"/><path d="M31.602,84.606l2.097,0l0,-50.988l37.023,0l0,37.425l-27.36,0l0,2.097l29.457,0l0,-41.619l-41.217,0l0,53.085Z" style="fill:#fff;fill-rule:nonzero;"/><path d="M46.639,43.281l0,4.001l-3.037,0l0,2.097l5.134,0l0,-6.098l-2.097,0Z" style="fill:#fff;fill-rule:nonzero;"/><path d="M62.721,63.042l-19.36,0l0,2.097l21.457,0l0,-25.618l-25.216,0l0,45.084l2.097,0l0,-42.987l21.022,0l0,21.424Z" style="fill:#fff;fill-rule:nonzero;"/><path d="M2.097,47.268l-2.097,0l0,25.432l0.775,0.44l28.937,0l0,-2.097l-27.615,0l0,-23.775Z" style="fill:#fff;fill-rule:nonzero;"/><path d="M10.098,47.268l-2.097,0l0,17.871l21.711,0l0,-2.097l-19.614,0l0,-15.774Z" style="fill:#fff;fill-rule:nonzero;"/><path d="M68.899,25.859l0,-21.858l-65.032,0l0,33.618l9.99,0l0,-2.097l-7.893,0l0,-29.424l60.838,0l0,19.761l2.097,0Z" style="fill:#fff;fill-rule:nonzero;"/><path d="M21.858,21.858l34.879,0l0,-2.097l-36.976,0l0,33.618l10.178,0l0,-2.097l-8.081,0l0,-29.424Z" style="fill:#fff;fill-rule:nonzero;"/><path d="M5.964,47.268l-2.097,0l0,21.871l25.845,0l0,-2.097l-23.748,0l0,-19.774Z" style="fill:#fff;fill-rule:nonzero;"/><path d="M66.802,67.042l-23.441,0l0,2.097l25.538,0l0,-33.618l-33.298,0l0,49.084l2.098,0l0,-46.987l29.103,0l0,29.424Z" style="fill:#fff;fill-rule:nonzero;"/><path d="M43.602,53.379l9.094,0l0,-10.098l-2.11,0l0,1.718l0.013,0.379l0,5.904l-6.997,0l0,2.097Z" style="fill:#fff;fill-rule:nonzero;"/></svg>